<?xml version="1.0" standalone="no"?>
<!DOCTYPE svg PUBLIC "-//W3C//DTD SVG 20010904//EN"
 "http://www.w3.org/TR/2001/REC-SVG-20010904/DTD/svg10.dtd">
<svg version="1.0" xmlns="http://www.w3.org/2000/svg"
 width="1229.000000pt" height="1280.000000pt" viewBox="0 0 1229.000000 1280.000000" 
 preserveAspectRatio="xMidYMid meet">
<metadata>
Created by potrace 1.15, written by Peter Selinger 2001-2017
</metadata>
<g transform="translate(0.000000,1280.000000) scale(0.100000,-0.100000)"
fill="#59981A" stroke="none">
<path d="M11690 12794 c-19 -2 -98 -9 -175 -14 -683 -52 -1022 -171 -1610
-563 -325 -217 -501 -365 -540 -454 -45 -100 -138 -224 -449 -599 -537 -645
-1526 -1953 -2573 -3404 -872 -1209 -1334 -1883 -1561 -2280 -112 -197 -197
-329 -296 -459 -88 -116 -291 -420 -526 -786 -403 -628 -575 -867 -769 -1068
-87 -90 -124 -117 -160 -117 -31 0 -136 104 -195 194 -71 107 -116 199 -241
490 -223 523 -492 1090 -574 1213 -57 84 -135 154 -202 178 -47 17 -79 20
-249 20 -150 0 -214 -4 -280 -18 -246 -53 -527 -180 -790 -358 -287 -195 -458
-394 -491 -574 -42 -224 68 -688 482 -2035 240 -781 397 -1196 575 -1521 82
-151 294 -488 313 -498 42 -23 256 -70 471 -106 300 -49 656 -45 985 10 170
29 294 64 401 114 72 34 88 47 151 122 145 175 386 510 698 974 510 759 746
1097 833 1200 29 33 86 119 128 190 42 72 107 182 144 245 175 297 733 1107
1605 2330 1118 1568 2090 2878 2328 3136 66 72 150 186 332 449 203 292 318
445 445 585 158 176 346 406 683 840 449 578 682 868 891 1105 248 281 653
866 756 1090 65 142 75 221 35 281 -24 38 -108 71 -205 83 -77 10 -286 12
-370 5z"/>
</g>
</svg>
