<svg width="18" height="18" viewBox="0 0 18 18" fill="none" xmlns="http://www.w3.org/2000/svg">
<path fill-rule="evenodd" clip-rule="evenodd" d="M13.0709 3.40407C13.453 3.00523 14.086 2.9916 14.4848 3.37363C14.8837 3.75566 14.8973 4.38868 14.5153 4.78752L10.3283 9.15879L14.5153 13.5301C14.8973 13.9289 14.8837 14.5619 14.4848 14.9439C14.086 15.326 13.453 15.3123 13.0709 14.9135L8.94355 10.6045L4.81616 14.9135C4.43413 15.3123 3.80112 15.326 3.40228 14.9439C3.00343 14.5619 2.9898 13.9289 3.37183 13.5301L7.55883 9.15879L3.37183 4.78752C2.9898 4.38868 3.00343 3.75566 3.40227 3.37363C3.80111 2.9916 4.43413 3.00523 4.81616 3.40407L8.94355 7.71312L13.0709 3.40407Z" fill="black"/>
</svg>
