<svg width="21" height="21" viewBox="0 0 21 21" fill="none" xmlns="http://www.w3.org/2000/svg">
<path fill-rule="evenodd" clip-rule="evenodd" d="M13.0359 18.2103C12.6143 18.5671 12.5617 19.1981 12.9185 19.6197C13.2752 20.0413 13.9062 20.0939 14.3278 19.7371L18.146 16.5063L19.0482 15.743L18.146 14.9796L14.3278 11.7488C13.9062 11.3921 13.2752 11.4446 12.9185 11.8663C12.5617 12.2879 12.6143 12.9188 13.0359 13.2756L14.7701 14.743L3.49999 14.743C2.94771 14.743 2.49999 15.1907 2.49999 15.743C2.49999 16.2952 2.94771 16.743 3.49999 16.743L14.7701 16.743L13.0359 18.2103Z" fill="black"/>
<path fill-rule="evenodd" clip-rule="evenodd" d="M7.96406 3.73713C8.38566 3.38038 8.43825 2.74941 8.0815 2.3278C7.72476 1.90619 7.09378 1.85361 6.67217 2.21036L2.85399 5.44113L1.95181 6.20451L2.85399 6.9679L6.67217 10.1987C7.09378 10.5554 7.72476 10.5028 8.0815 10.0812C8.43824 9.65962 8.38566 9.02864 7.96406 8.67189L6.22988 7.20452L17.5 7.20452C18.0523 7.20452 18.5 6.7568 18.5 6.20452C18.5 5.65223 18.0523 5.20452 17.5 5.20452L6.22987 5.20452L7.96406 3.73713Z" fill="black"/>
</svg>
