<svg width="183" height="44" viewBox="0 0 183 44" fill="none" xmlns="http://www.w3.org/2000/svg">
<path d="M12.1229 8.25887C11.9248 7.51979 11.4891 6.86623 10.883 6.39899C10.2769 5.93193 9.53398 5.67713 8.76876 5.67384L8.75967 5.67384C7.83998 5.67384 6.95796 6.03912 6.30764 6.68959C5.65733 7.33986 5.29199 8.22192 5.29199 9.14151L5.29199 9.15041C5.29534 9.91561 5.55022 10.6584 6.01735 11.2643C6.48448 11.8703 7.13795 12.306 7.87703 12.5039C9.92909 13.0704 11.7387 14.2946 13.0282 15.9882C14.3178 17.6821 15.0161 19.7521 15.0161 21.881C15.0161 24.0098 14.3178 26.0798 13.0282 27.7736C11.7387 29.4674 9.92909 30.6915 7.87703 31.258C7.13801 31.4561 6.48464 31.8918 6.01762 32.4979C5.55059 33.104 5.29582 33.8468 5.29257 34.6119L5.29257 34.621C5.29257 35.5406 5.65791 36.4227 6.30823 37.073C6.95854 37.7233 7.84056 38.0887 8.76025 38.0887L8.76934 38.0887C9.53446 38.0853 10.2773 37.8304 10.8833 37.3633C11.4892 36.8961 11.9248 36.2427 12.1229 35.5036C12.6894 33.4516 13.9134 31.642 15.6072 30.3524C17.301 29.0629 19.371 28.3645 21.4999 28.3645C23.6287 28.3645 25.6987 29.0629 27.3926 30.3524C29.0865 31.642 30.3104 33.4515 30.8769 35.5036C31.075 36.2426 31.5105 36.896 32.1165 37.3631C32.7225 37.8302 33.4652 38.0851 34.2302 38.0885L34.2393 38.0885C35.1591 38.0885 36.041 37.7231 36.6914 37.0728C37.3417 36.4225 37.707 35.5405 37.707 34.6208L37.707 34.6117C37.7037 33.8466 37.4487 33.1038 36.9816 32.4978C36.5144 31.8918 35.861 31.4562 35.1219 31.2582C33.0699 30.6916 31.2604 29.4676 29.9708 27.7738C28.6811 26.08 27.9829 24.01 27.9829 21.8811C27.9829 19.7523 28.6811 17.6823 29.9708 15.9884C31.2604 14.2948 33.0699 13.0706 35.1219 12.5041C35.861 12.3062 36.5146 11.8705 36.9818 11.2645C37.4489 10.6586 37.7039 9.91561 37.7072 9.15041L37.7072 9.14132C37.7072 8.22173 37.3417 7.33967 36.6914 6.68939C36.0411 6.03912 35.1591 5.67364 34.2395 5.67364L34.2302 5.67364C33.465 5.67693 32.7223 5.93193 32.1163 6.39898C31.5103 6.86623 31.0748 7.5196 30.8767 8.25868C30.3102 10.3107 29.0863 12.1203 27.3924 13.4098C25.6985 14.6995 23.6285 15.3978 21.4997 15.3978C19.3708 15.3978 17.3008 14.6995 15.607 13.4098C13.9132 12.1203 12.6892 10.3107 12.1227 8.25868L12.1229 8.25887Z" fill="#D4088C"/>
<path d="M2.05414 38.8438C2.16508 38.7323 2.2385 38.5889 2.2642 38.4337C2.28989 38.2785 2.26658 38.1191 2.19751 37.9778C1.57469 36.6881 1.36725 35.2371 1.60379 33.8246C1.84032 32.412 2.5092 31.1077 3.51818 30.0913C3.65935 29.9512 3.74077 29.7619 3.74532 29.563C3.74986 29.3642 3.67719 29.1713 3.54255 29.0249C3.47311 28.9521 3.38984 28.894 3.29761 28.8539C3.20538 28.8138 3.10607 28.7925 3.0055 28.7913C2.90493 28.7902 2.80516 28.8091 2.71202 28.8471C2.61888 28.885 2.53427 28.9412 2.46315 29.0123C1.22676 30.2517 0.40676 31.8452 0.116894 33.5717C-0.172972 35.2982 0.0816732 37.0722 0.8455 38.6474C0.898681 38.7547 0.976667 38.8477 1.07299 38.9188C1.16932 38.9899 1.2812 39.037 1.39936 39.0562C1.51753 39.0754 1.63857 39.0661 1.75244 39.0292C1.86632 38.9923 1.96975 38.9287 2.05414 38.8438Z" fill="#A31FA9"/>
<path d="M4.72773 42.533C6.2979 43.2959 8.06612 43.5528 9.78845 43.2681C11.5108 42.9834 13.1023 42.1712 14.3435 40.9436C14.4791 40.8146 14.5635 40.6407 14.5809 40.4543C14.5982 40.2678 14.5475 40.0814 14.4381 39.9294C14.3731 39.8434 14.2903 39.7722 14.1954 39.7208C14.1006 39.6694 13.9958 39.639 13.8881 39.6316C13.7805 39.6241 13.6725 39.6398 13.5715 39.6777C13.4704 39.7155 13.3787 39.7746 13.3024 39.8509C12.2858 40.865 10.9789 41.5379 9.56289 41.7763C8.14684 42.0147 6.6917 41.8068 5.39909 41.1814C5.25758 41.1118 5.09789 41.0881 4.94227 41.1136C4.78664 41.1391 4.64287 41.2125 4.53096 41.3236C4.44599 41.4081 4.38239 41.5116 4.34544 41.6256C4.3085 41.7395 4.29925 41.8607 4.31849 41.9789C4.33774 42.0972 4.38489 42.2091 4.45607 42.3055C4.52723 42.4019 4.62037 42.4799 4.72773 42.533Z" fill="#6DE0F6"/>
<path d="M40.8028 5.78395C41.4258 7.07405 41.6332 8.52551 41.3962 9.93846C41.1594 11.3512 40.49 12.6558 39.4804 13.6722C39.3399 13.8121 39.2589 14.0007 39.2544 14.1988C39.2498 14.3971 39.3221 14.5892 39.4562 14.7353C39.5255 14.8085 39.6089 14.8669 39.7012 14.9073C39.7934 14.9476 39.8929 14.969 39.9937 14.9704C40.0945 14.9717 40.1945 14.9528 40.2878 14.9149C40.3812 14.8769 40.466 14.8206 40.5372 14.7494C41.7735 13.51 42.5934 11.9166 42.8835 10.19C43.1733 8.46359 42.9187 6.68961 42.1548 5.11432C42.1016 5.00714 42.0236 4.91408 41.9273 4.84288C41.8309 4.77187 41.7191 4.72486 41.6009 4.7057C41.4827 4.68655 41.3616 4.69584 41.2478 4.73279C41.1339 4.76974 41.0305 4.8334 40.9462 4.91833C40.8353 5.02978 40.762 5.17314 40.7363 5.32831C40.7105 5.48328 40.7337 5.64271 40.8028 5.78395Z" fill="#6DE0F6"/>
<path d="M28.6455 3.92501C28.7915 4.05909 28.9836 4.13145 29.182 4.1268C29.3801 4.12235 29.5689 4.04129 29.7086 3.90082C30.7257 2.89049 32.0315 2.22087 33.4454 1.98463C34.8595 1.74821 36.3119 1.95677 37.6024 2.58131C37.7439 2.65058 37.9033 2.67399 38.0587 2.64845C38.214 2.62272 38.3576 2.54939 38.4692 2.43834C38.5541 2.35398 38.6176 2.25066 38.6548 2.1369C38.6917 2.02314 38.701 1.90221 38.6818 1.784C38.6627 1.66598 38.6159 1.55396 38.5449 1.4578C38.4739 1.36145 38.381 1.28328 38.2738 1.23008C36.6981 0.463912 34.923 0.207556 33.195 0.496609C31.4669 0.785663 29.8719 1.60581 28.6313 2.84309C28.5599 2.91429 28.5036 2.99922 28.4655 3.09267C28.4274 3.18612 28.4084 3.28615 28.4098 3.38695C28.4112 3.48794 28.4326 3.58739 28.4733 3.67987C28.5137 3.77236 28.5721 3.85555 28.6455 3.92501Z" fill="#A31FA9"/>
<path d="M5.40047 2.57996C6.69071 1.956 8.1428 1.74801 9.5563 1.98463C10.9698 2.22126 12.275 2.89088 13.2918 3.90082C13.4315 4.04129 13.6203 4.12235 13.8184 4.1268C14.0165 4.13145 14.2087 4.05909 14.3547 3.92501C14.4278 3.85574 14.4863 3.77235 14.5267 3.68007C14.5671 3.58778 14.5886 3.48833 14.59 3.38753C14.5913 3.28673 14.5724 3.1869 14.5345 3.09345C14.4965 3.00019 14.4403 2.91525 14.3691 2.84406C13.1291 1.60716 11.5347 0.786823 9.80732 0.497383C8.07996 0.207749 6.30528 0.463136 4.72969 1.22814C4.62248 1.28135 4.52954 1.35951 4.45853 1.45586C4.38751 1.55221 4.34049 1.66404 4.32138 1.78226C4.30226 1.90028 4.31157 2.02139 4.34856 2.13516C4.38555 2.24912 4.44915 2.35243 4.53408 2.43679C4.6457 2.54765 4.78913 2.62117 4.94439 2.6469C5.09967 2.67244 5.25908 2.64903 5.40047 2.57996Z" fill="#6DE0F6"/>
<path d="M3.51964 13.6727C2.50956 12.656 1.83999 11.3508 1.60336 9.9373C1.36673 8.52376 1.57471 7.07172 2.19858 5.78143C2.26783 5.64 2.29126 5.48057 2.26562 5.32541C2.24001 5.17004 2.16658 5.02668 2.05561 4.91504C1.97127 4.83011 1.86789 4.76645 1.75405 4.7295C1.64021 4.69255 1.5192 4.68326 1.40104 4.70241C1.28288 4.72137 1.17098 4.76839 1.07463 4.8394C0.978268 4.9104 0.900226 5.00346 0.846969 5.11065C0.0819461 6.68632 -0.173513 8.46088 0.11606 10.1882C0.405635 11.9156 1.22587 13.51 2.46287 14.75C2.53413 14.8212 2.61891 14.8775 2.71225 14.9154C2.8056 14.9534 2.90559 14.9723 3.00633 14.971C3.10709 14.9696 3.20656 14.9481 3.29887 14.9079C3.39119 14.8675 3.47448 14.809 3.54383 14.7359C3.67783 14.5898 3.75013 14.3977 3.74562 14.1994C3.74111 14.0013 3.66014 13.8126 3.51964 13.6727Z" fill="#D4088C"/>
<path d="M39.4806 30.0896C40.4905 31.1063 41.1601 32.4115 41.3968 33.825C41.6334 35.2385 41.4254 36.6906 40.8014 37.9809C40.7324 38.1223 40.709 38.2817 40.7345 38.4369C40.7602 38.5922 40.8338 38.7357 40.9446 38.8473C41.029 38.9322 41.1323 38.9958 41.2462 39.0328C41.36 39.0698 41.4811 39.0791 41.5991 39.06C41.7174 39.0408 41.8292 38.9938 41.9255 38.9228C42.0219 38.8518 42.1001 38.7588 42.1533 38.6517C42.9183 37.0761 43.1737 35.3014 42.884 33.574C42.5946 31.8466 41.7742 30.2523 40.5373 29.0123C40.4661 28.9411 40.3812 28.8848 40.288 28.8468C40.1947 28.8089 40.0947 28.7901 39.9939 28.7914C39.8931 28.7927 39.7936 28.8142 39.7013 28.8546C39.609 28.895 39.5257 28.9535 39.4564 29.0266C39.3223 29.1726 39.25 29.3648 39.2544 29.563C39.259 29.7611 39.3399 29.9498 39.4806 30.0896Z" fill="#6DE0F6"/>
<path d="M37.5998 41.182C36.3095 41.806 34.8575 42.014 33.444 41.7774C32.0304 41.5408 30.7252 40.8712 29.7085 39.8611C29.5686 39.7207 29.38 39.6397 29.1819 39.6352C28.9836 39.6307 28.7914 39.703 28.6454 39.837C28.5722 39.9063 28.5138 39.9896 28.4734 40.0819C28.4331 40.1742 28.4116 40.2737 28.4103 40.3745C28.4089 40.4752 28.4279 40.5752 28.4658 40.6685C28.5037 40.7619 28.56 40.8467 28.6312 40.9179C29.8712 42.1549 31.4657 42.9752 33.193 43.2647C34.9204 43.5543 36.6949 43.2989 38.2706 42.5338C38.3778 42.4806 38.4709 42.4025 38.5419 42.3062C38.6129 42.2098 38.6599 42.0979 38.6788 41.9798C38.698 41.8616 38.6887 41.7406 38.6518 41.6267C38.6148 41.5129 38.5511 41.4095 38.4662 41.3252C38.3546 41.2142 38.2112 41.1408 38.0558 41.1151C37.9007 41.0895 37.7413 41.1129 37.5998 41.182Z" fill="#A31FA9"/>
<path d="M66.656 30.101C64.632 30.101 63.0627 29.5803 61.948 28.539C60.848 27.4976 60.2613 26.031 60.188 24.139C60.1733 23.743 60.166 23.0976 60.166 22.203C60.166 21.2936 60.1733 20.6336 60.188 20.223C60.2613 18.3456 60.8553 16.8863 61.97 15.845C63.0993 14.789 64.6613 14.261 66.656 14.261C67.9613 14.261 69.098 14.4883 70.066 14.943C71.034 15.383 71.782 15.9916 72.31 16.769C72.838 17.5316 73.1167 18.397 73.146 19.365V19.409C73.146 19.5263 73.0947 19.629 72.992 19.717C72.904 19.7903 72.8013 19.827 72.684 19.827H70.594C70.418 19.827 70.286 19.7903 70.198 19.717C70.11 19.6436 70.0367 19.5043 69.978 19.299C69.7433 18.375 69.3547 17.7296 68.812 17.363C68.2693 16.9816 67.5433 16.791 66.634 16.791C64.522 16.791 63.422 17.9716 63.334 20.333C63.3193 20.729 63.312 21.3376 63.312 22.159C63.312 22.9803 63.3193 23.6036 63.334 24.029C63.422 26.3903 64.522 27.571 66.634 27.571C67.5433 27.571 68.2693 27.3803 68.812 26.999C69.3693 26.6176 69.758 25.9723 69.978 25.063C70.022 24.8576 70.088 24.7183 70.176 24.645C70.2787 24.5716 70.418 24.535 70.594 24.535H72.684C72.816 24.535 72.926 24.579 73.014 24.667C73.1167 24.755 73.1607 24.865 73.146 24.997C73.1167 25.965 72.838 26.8376 72.31 27.615C71.782 28.3776 71.034 28.9863 70.066 29.441C69.098 29.881 67.9613 30.101 66.656 30.101ZM76.6791 29.881C76.5324 29.881 76.4077 29.8296 76.3051 29.727C76.2024 29.6243 76.1511 29.4996 76.1511 29.353V18.991C76.1511 18.8443 76.2024 18.7196 76.3051 18.617C76.4077 18.4996 76.5324 18.441 76.6791 18.441H78.4611C78.6224 18.441 78.7544 18.4923 78.8571 18.595C78.9597 18.6976 79.0111 18.8296 79.0111 18.991V19.893C79.3631 19.4236 79.8031 19.0643 80.3311 18.815C80.8737 18.5656 81.4897 18.441 82.1791 18.441H83.0811C83.2424 18.441 83.3671 18.4923 83.4551 18.595C83.5577 18.683 83.6091 18.8076 83.6091 18.969V20.553C83.6091 20.6996 83.5577 20.8243 83.4551 20.927C83.3671 21.0296 83.2424 21.081 83.0811 21.081H81.3651C80.6757 21.081 80.1331 21.279 79.7371 21.675C79.3411 22.071 79.1431 22.6136 79.1431 23.303V29.353C79.1431 29.4996 79.0917 29.6243 78.9891 29.727C78.8864 29.8296 78.7544 29.881 78.5931 29.881H76.6791ZM88.0529 34.061C87.9356 34.061 87.8329 34.017 87.7449 33.929C87.6569 33.841 87.6129 33.7383 87.6129 33.621C87.6129 33.489 87.6422 33.3716 87.7009 33.269L89.4169 29.199L85.1929 19.233C85.1342 19.101 85.1049 18.9983 85.1049 18.925C85.1196 18.793 85.1709 18.683 85.2589 18.595C85.3469 18.4923 85.4569 18.441 85.5889 18.441H87.3709C87.6496 18.441 87.8476 18.5803 87.9649 18.859L90.8909 26.053L93.9049 18.859C94.0222 18.5803 94.2202 18.441 94.4989 18.441H96.2589C96.3762 18.441 96.4789 18.485 96.5669 18.573C96.6696 18.661 96.7209 18.7636 96.7209 18.881C96.7209 18.9836 96.6916 19.101 96.6329 19.233L90.4069 33.643C90.2749 33.9216 90.0696 34.061 89.7909 34.061H88.0529ZM99.8277 34.061C99.681 34.061 99.5564 34.0096 99.4537 33.907C99.351 33.819 99.2997 33.6943 99.2997 33.533V18.969C99.2997 18.8076 99.351 18.683 99.4537 18.595C99.5564 18.4923 99.681 18.441 99.8277 18.441H101.566C101.727 18.441 101.852 18.4923 101.94 18.595C102.042 18.683 102.094 18.8076 102.094 18.969V19.849C102.915 18.7636 104.088 18.221 105.614 18.221C107.095 18.221 108.232 18.6903 109.024 19.629C109.816 20.553 110.241 21.807 110.3 23.391C110.314 23.567 110.322 23.8236 110.322 24.161C110.322 24.513 110.314 24.777 110.3 24.953C110.241 26.493 109.816 27.7396 109.024 28.693C108.232 29.6316 107.095 30.101 105.614 30.101C104.132 30.101 103.003 29.5803 102.226 28.539V33.533C102.226 33.6943 102.174 33.819 102.072 33.907C101.984 34.0096 101.859 34.061 101.698 34.061H99.8277ZM104.8 27.747C106.384 27.747 107.227 26.7716 107.33 24.821C107.344 24.6743 107.352 24.4543 107.352 24.161C107.352 23.8676 107.344 23.6476 107.33 23.501C107.227 21.5503 106.384 20.575 104.8 20.575C103.949 20.575 103.318 20.8463 102.908 21.389C102.497 21.9316 102.27 22.599 102.226 23.391L102.204 24.227L102.226 25.085C102.255 25.8183 102.482 26.449 102.908 26.977C103.348 27.4903 103.978 27.747 104.8 27.747ZM118.535 29.881C117.201 29.881 116.196 29.5363 115.521 28.847C114.861 28.143 114.531 27.1163 114.531 25.767V20.773H112.793C112.647 20.773 112.522 20.7216 112.419 20.619C112.317 20.5016 112.265 20.3696 112.265 20.223V18.969C112.265 18.8223 112.317 18.6976 112.419 18.595C112.522 18.4923 112.647 18.441 112.793 18.441H114.531V14.789C114.531 14.6276 114.583 14.503 114.685 14.415C114.788 14.3123 114.913 14.261 115.059 14.261H116.841C117.003 14.261 117.127 14.3123 117.215 14.415C117.318 14.503 117.369 14.6276 117.369 14.789V18.441H120.119C120.281 18.441 120.405 18.4923 120.493 18.595C120.596 18.683 120.647 18.8076 120.647 18.969V20.223C120.647 20.3843 120.596 20.5163 120.493 20.619C120.391 20.7216 120.266 20.773 120.119 20.773H117.369V25.547C117.369 26.1776 117.479 26.6543 117.699 26.977C117.919 27.2996 118.286 27.461 118.799 27.461H120.317C120.464 27.461 120.589 27.5123 120.691 27.615C120.794 27.7176 120.845 27.8423 120.845 27.989V29.353C120.845 29.4996 120.794 29.6243 120.691 29.727C120.603 29.8296 120.479 29.881 120.317 29.881H118.535ZM128.517 30.101C126.801 30.101 125.474 29.661 124.535 28.781C123.596 27.8863 123.09 26.669 123.017 25.129L122.995 24.161L123.017 23.193C123.09 21.6676 123.604 20.4576 124.557 19.563C125.51 18.6683 126.83 18.221 128.517 18.221C130.204 18.221 131.524 18.6683 132.477 19.563C133.43 20.4576 133.944 21.6676 134.017 23.193C134.032 23.369 134.039 23.6916 134.039 24.161C134.039 24.6303 134.032 24.953 134.017 25.129C133.944 26.669 133.438 27.8863 132.499 28.781C131.56 29.661 130.233 30.101 128.517 30.101ZM128.517 27.923C129.294 27.923 129.896 27.681 130.321 27.197C130.746 26.6983 130.981 25.9723 131.025 25.019C131.04 24.8723 131.047 24.5863 131.047 24.161C131.047 23.7356 131.04 23.4496 131.025 23.303C130.981 22.3496 130.746 21.631 130.321 21.147C129.896 20.6483 129.294 20.399 128.517 20.399C127.74 20.399 127.138 20.6483 126.713 21.147C126.288 21.631 126.053 22.3496 126.009 23.303L125.987 24.161L126.009 25.019C126.053 25.9723 126.288 26.6983 126.713 27.197C127.138 27.681 127.74 27.923 128.517 27.923ZM142.747 30.101C141.441 30.101 140.319 29.903 139.381 29.507C138.442 29.111 137.731 28.5903 137.247 27.945C136.763 27.2996 136.506 26.603 136.477 25.855C136.477 25.723 136.521 25.613 136.609 25.525C136.697 25.437 136.807 25.393 136.939 25.393H138.897C139.073 25.393 139.205 25.4296 139.293 25.503C139.395 25.5616 139.491 25.6643 139.579 25.811C139.725 26.3096 140.063 26.7276 140.591 27.065C141.119 27.4023 141.837 27.571 142.747 27.571C143.788 27.571 144.573 27.4023 145.101 27.065C145.629 26.713 145.893 26.229 145.893 25.613C145.893 25.2023 145.753 24.865 145.475 24.601C145.211 24.337 144.807 24.1096 144.265 23.919C143.737 23.7283 142.945 23.4936 141.889 23.215C140.158 22.8043 138.889 22.2616 138.083 21.587C137.291 20.8976 136.895 19.9223 136.895 18.661C136.895 17.8103 137.122 17.055 137.577 16.395C138.046 15.735 138.713 15.2143 139.579 14.833C140.459 14.4516 141.478 14.261 142.637 14.261C143.839 14.261 144.881 14.4736 145.761 14.899C146.641 15.3243 147.308 15.8596 147.763 16.505C148.232 17.1356 148.481 17.7663 148.511 18.397C148.511 18.529 148.467 18.639 148.379 18.727C148.291 18.815 148.181 18.859 148.049 18.859H146.003C145.695 18.859 145.482 18.7196 145.365 18.441C145.277 17.9716 144.983 17.583 144.485 17.275C143.986 16.9523 143.37 16.791 142.637 16.791C141.815 16.791 141.17 16.945 140.701 17.253C140.231 17.561 139.997 18.0083 139.997 18.595C139.997 19.0056 140.114 19.343 140.349 19.607C140.583 19.871 140.95 20.1056 141.449 20.311C141.962 20.5163 142.695 20.7436 143.649 20.993C144.939 21.2863 145.966 21.6163 146.729 21.983C147.506 22.3496 148.078 22.8116 148.445 23.369C148.811 23.9263 148.995 24.6376 148.995 25.503C148.995 26.4416 148.731 27.263 148.203 27.967C147.689 28.6563 146.956 29.1843 146.003 29.551C145.064 29.9176 143.979 30.101 142.747 30.101ZM155.234 30.101C154.486 30.101 153.797 29.9543 153.166 29.661C152.55 29.353 152.059 28.9423 151.692 28.429C151.34 27.9156 151.164 27.351 151.164 26.735C151.164 25.7376 151.567 24.931 152.374 24.315C153.181 23.699 154.288 23.281 155.696 23.061L158.71 22.621V22.159C158.71 21.5136 158.549 21.0296 158.226 20.707C157.903 20.3843 157.383 20.223 156.664 20.223C156.18 20.223 155.784 20.3183 155.476 20.509C155.183 20.685 154.948 20.861 154.772 21.037C154.596 21.2276 154.479 21.3523 154.42 21.411C154.361 21.587 154.251 21.675 154.09 21.675H152.396C152.264 21.675 152.147 21.631 152.044 21.543C151.956 21.455 151.912 21.3376 151.912 21.191C151.927 20.8243 152.103 20.4063 152.44 19.937C152.792 19.4676 153.327 19.0643 154.046 18.727C154.765 18.3896 155.645 18.221 156.686 18.221C158.417 18.221 159.678 18.6096 160.47 19.387C161.262 20.1643 161.658 21.1836 161.658 22.445V29.353C161.658 29.4996 161.607 29.6243 161.504 29.727C161.416 29.8296 161.291 29.881 161.13 29.881H159.348C159.201 29.881 159.077 29.8296 158.974 29.727C158.871 29.6243 158.82 29.4996 158.82 29.353V28.495C158.497 28.9643 158.035 29.353 157.434 29.661C156.847 29.9543 156.114 30.101 155.234 30.101ZM155.982 28.011C156.789 28.011 157.449 27.747 157.962 27.219C158.475 26.691 158.732 25.921 158.732 24.909V24.447L156.532 24.799C155.681 24.931 155.036 25.1436 154.596 25.437C154.171 25.7303 153.958 26.0896 153.958 26.515C153.958 26.9843 154.156 27.351 154.552 27.615C154.948 27.879 155.425 28.011 155.982 28.011ZM165.69 29.881C165.544 29.881 165.419 29.8296 165.316 29.727C165.214 29.6243 165.162 29.4996 165.162 29.353V14.789C165.162 14.6276 165.214 14.503 165.316 14.415C165.419 14.3123 165.544 14.261 165.69 14.261H167.516C167.678 14.261 167.802 14.3123 167.89 14.415C167.993 14.503 168.044 14.6276 168.044 14.789V29.353C168.044 29.4996 167.993 29.6243 167.89 29.727C167.802 29.8296 167.678 29.881 167.516 29.881H165.69ZM176.55 30.101C174.922 30.101 173.624 29.6316 172.656 28.693C171.703 27.7396 171.197 26.405 171.138 24.689L171.116 24.139L171.138 23.589C171.212 21.917 171.725 20.6043 172.678 19.651C173.646 18.6976 174.937 18.221 176.55 18.221C178.281 18.221 179.616 18.749 180.554 19.805C181.508 20.861 181.984 22.269 181.984 24.029V24.491C181.984 24.6376 181.933 24.7623 181.83 24.865C181.728 24.9676 181.596 25.019 181.434 25.019H174.13V25.195C174.16 26.0016 174.38 26.6836 174.79 27.241C175.216 27.7836 175.795 28.055 176.528 28.055C177.394 28.055 178.09 27.7176 178.618 27.043C178.75 26.8816 178.853 26.779 178.926 26.735C179.014 26.691 179.139 26.669 179.3 26.669H181.192C181.324 26.669 181.434 26.713 181.522 26.801C181.625 26.8743 181.676 26.9696 181.676 27.087C181.676 27.439 181.464 27.857 181.038 28.341C180.628 28.8103 180.034 29.221 179.256 29.573C178.479 29.925 177.577 30.101 176.55 30.101ZM178.992 23.171V23.105C178.992 22.2396 178.772 21.543 178.332 21.015C177.907 20.487 177.313 20.223 176.55 20.223C175.788 20.223 175.194 20.487 174.768 21.015C174.343 21.543 174.13 22.2396 174.13 23.105V23.171H178.992Z" fill="#6DE0F6"/>
</svg>
